<svg xmlns="http://www.w3.org/2000/svg" version="1.1" xmlns:xlink="http://www.w3.org/1999/xlink" xmlns:svgjs="http://svgjs.dev/svgjs" width="100%" height="100%" viewBox="0 0 1000 600"><rect width="1000" height="600" x="0" y="0" fill="#0f0f1c"/><g><rect width="333.3333333333333" height="333.3333333333333" rx="13.333333333333334" ry="13.333333333333334" y="203.88703135475515" fill="#3b82f6" transform="matrix(0.6880804839141028,0,0,0.6880804839141027,0,45.02924296347366)" x="181.66479492187497"/><path d="M295.88107159372356 444.26086299372963L295.88107159372356 296.39555751668365Q298.37656170242525 295.974631474252 301.3531101453345 295.76416845303623Q304.3296585882437 295.5537054318204 306.70488411339346 295.5537054318204L306.70488411339346 295.5537054318204Q309.32063880564704 295.5537054318204 312.2971872485562 295.76416845303623Q315.27373569146545 295.974631474252 317.76922580016713 296.39555751668365L317.76922580016713 296.39555751668365L317.76922580016713 444.26086299372963Q315.27373569146545 444.6817890361612 312.2971872485562 444.922318203265Q309.32063880564704 445.13278122448077 306.70488411339346 445.13278122448077L306.70488411339346 445.13278122448077Q304.3296585882437 445.13278122448077 301.3531101453345 444.922318203265Q298.37656170242525 444.6817890361612 295.88107159372356 444.26086299372963L295.88107159372356 444.26086299372963ZM400.7818545968576 438.6384937126788L400.7818545968576 438.6384937126788Q398.4968275093717 441.97583590624373 394.2274347932797 443.7798046595221Q389.9580420771877 445.55370726691234 385.9592446740875 445.55370726691234L385.9592446740875 445.55370726691234Q379.46495716228554 445.55370726691234 376.5786071570402 442.15623278157153Q373.72232329768286 438.72869215034274 371.3470977725331 432.1442062008769L371.3470977725331 432.1442062008769L359.2003748337924 399.76296707953117Q354.57018836704475 387.3155826819107 348.70728991889024 382.35466861039544Q342.8744576166237 377.36368839299206 332.92256332770495 377.36368839299206L332.92256332770495 377.36368839299206Q329.7656180094679 377.36368839299206 323.1209997682261 377.54408526831986Q316.4463153810964 377.6944159977598 306.4944210921777 378.35587120729514L306.4944210921777 378.35587120729514L306.4944210921777 363.8339227434047L342.9646560542876 363.8339227434047Q354.0289977410613 363.8339227434047 360.733748274079 366.9908680616417Q367.4384988070968 370.11774723399077 371.6176930855248 376.281307141025Q375.766821218065 382.4448670480593 379.1342295575178 391.5549092521148L379.1342295575178 391.5549092521148L391.25088635037054 423.36489160158914Q393.74637645907217 429.97944369694295 395.8510066712302 433.106322869292Q397.95563688338825 436.26326818752904 400.7818545968576 438.6384937126788ZM338.63513104641964 352.67938261896705L367.22803578588093 304.84414451120375Q369.8137243322465 300.30415648212 372.4294790245001 298.0191293946341Q375.0151675708657 295.76416845303623 380.6375368519164 295.76416845303623L380.6375368519164 295.76416845303623Q383.4637545653858 295.76416845303623 386.5906337377349 295.9144991824761Q389.7475790559719 296.0948960578039 392.9947228118729 296.3053590790197L392.9947228118729 296.3053590790197L394.3777655227196 298.25965856173787L360.9442112952948 354.42321908046944Q356.28395868265915 362.42081388667003 349.3086128366497 367.14119879108165Q342.3332669906402 371.86158369549315 331.9303805134019 371.86158369549315L331.9303805134019 371.86158369549315L306.4944210921777 371.86158369549315L306.4944210921777 359.17367013076904Q311.9063273520126 358.8730086718893 318.5810117391424 358.75274408833747Q325.22562998038416 358.6324795047855 330.5172716566672 358.54228106712156L330.5172716566672 358.54228106712156Q333.7644154125682 358.54228106712156 335.29778885285475 357.1893045021629Q336.80109614725336 355.8363279372042 338.63513104641964 352.67938261896705L338.63513104641964 352.67938261896705Z " fill="#ededed" transform="matrix(0.6880804839141028,0,0,0.6880804839141027,0,45.02924296347366)"/><path d="M598.3314613747465 409.23742899071436L598.3314613747465 296.19728558709494Q600.2392149132785 295.8754958336076 602.5147281700818 295.71460095686393Q604.790241426885 295.55370608012026 606.6060550358492 295.55370608012026L606.6060550358492 295.55370608012026Q608.605748503949 295.55370608012026 610.8812617607522 295.71460095686393Q613.1567750175554 295.8754958336076 615.0645285560875 296.19728558709494L615.0645285560875 296.19728558709494L615.0645285560875 409.23742899071436Q613.1567750175554 409.5592187442017 610.8812617607522 409.7430986033373Q608.605748503949 409.90399348008094 606.6060550358492 409.90399348008094L606.6060550358492 409.90399348008094Q604.790241426885 409.90399348008094 602.5147281700818 409.7430986033373Q600.2392149132785 409.5592187442017 598.3314613747465 409.23742899071436L598.3314613747465 409.23742899071436ZM678.5260649402666 404.93923728341935L678.5260649402666 404.93923728341935Q676.7792062784782 407.490570328926 673.515338778821 408.8696692724432Q670.251471279164 410.2257832335683 667.1944686210344 410.2257832335683L667.1944686210344 410.2257832335683Q662.2297124243727 410.2257832335683 660.0231541147454 407.6284802232778Q657.8395807875099 405.00819223059517 656.0237671785458 399.97448108675775L656.0237671785458 399.97448108675775L646.7378342921971 375.2196550506256Q643.1981470038367 365.70387234035746 638.716075437406 361.91135024568547Q634.2569888533673 358.09584316862146 626.6489596816313 358.09584316862146L626.6489596816313 358.09584316862146Q624.2355365304762 358.09584316862146 619.1558554218549 358.2337530629731Q614.0531893308415 358.34867797493285 606.4451601591055 358.8543475875559L606.4451601591055 358.8543475875559L606.4451601591055 347.7526010922431L634.3259438005431 347.7526010922431Q642.7844173207815 347.7526010922431 647.9100683941867 350.166024243398Q653.035719467592 352.556462412161 656.2306320200734 357.2683838025112Q659.4025595901627 361.9803051928613 661.9768776180613 368.94475485762274L661.9768776180613 368.94475485762274L671.2398255220179 393.2628662283078Q673.1475790605499 398.31956235453725 674.7565278279866 400.71000052330027Q676.3654765954232 403.1234236744552 678.5260649402666 404.93923728341935ZM631.0161063361021 339.2251726248289L652.8748245908483 302.6560656392335Q654.8515330765562 299.1853332980487 656.851226544656 297.43847463626037Q658.8279350303638 295.71460095686393 663.1261267376589 295.71460095686393L663.1261267376589 295.71460095686393Q665.2867150825024 295.71460095686393 667.6771532512654 295.8295258688237Q670.0905764024203 295.96743576317544 672.572954500751 296.1283306399191L672.572954500751 296.1283306399191L673.6302636907809 297.62235449539594L648.0709632709304 340.55830160356214Q644.5082910001778 346.6723069198213 639.1757750852449 350.28094915535775Q633.8432591703122 353.8895913908943 625.8904552626968 353.8895913908943L625.8904552626968 353.8895913908943L606.4451601591055 353.8895913908943L606.4451601591055 344.1899288214906Q610.5824569896569 343.960078997571 615.6851230806702 343.86813906800325Q620.7648041892916 343.7761991384354 624.8101610902751 343.7072441912596L624.8101610902751 343.7072441912596Q627.2925391886059 343.7072441912596 628.4647732905954 342.67291998362174Q629.614022410193 341.6385957759839 631.0161063361021 339.2251726248289L631.0161063361021 339.2251726248289ZM758.4448487170833 327.6407414992852L758.4448487170833 386.1605066691947Q758.4448487170833 391.03332293628847 759.4102179775454 395.3774846083674Q760.3526022556154 399.72164628044635 763.0878151602576 402.2040243787771L763.0878151602576 402.2040243787771Q762.421250670891 404.3646127236206 760.6973769914946 406.80102085716743Q758.9505183297063 409.23742899071436 756.7899299848629 410.4786180398798L756.7899299848629 410.4786180398798Q749.0210059363831 408.73175937809145 745.665198507158 402.6637240266162Q742.3093910779331 396.5727036927489 742.3093910779331 388.87273459144495L742.3093910779331 388.87273459144495L742.3093910779331 327.6407414992852Q745.6192285423742 326.9971619923105 750.3541349151163 326.9971619923105L750.3541349151163 326.9971619923105Q754.9741163758986 326.9971619923105 758.4448487170833 327.6407414992852L758.4448487170833 327.6407414992852ZM693.9030181604825 383.83902344760753L693.9030181604825 344.7875383636812Q693.9030181604825 340.4663616739943 693.3743635654675 336.6738395793223Q692.8457089704526 332.8583325022583 691.3516851149758 330.0541646504401L691.3516851149758 330.0541646504401Q693.0755587943721 328.46820086539543 695.8107716990145 327.52581658732544Q698.5459846036567 326.58343230925533 701.5340323146105 326.58343230925533L701.5340323146105 326.58343230925533Q706.1540137753929 326.58343230925533 708.1077372787088 329.18073531954593Q710.0384757996327 331.77803832983653 710.0384757996327 336.9266743856337L710.0384757996327 336.9266743856337L710.0384757996327 379.7017266170562Q710.0384757996327 388.2981100316462 712.24503410926 392.18257205588606Q714.4286074364956 396.0900190625179 720.7264926118903 396.0900190625179L720.7264926118903 396.0900190625179Q725.0246843191853 396.0900190625179 729.9894405158469 394.04435562963414Q734.9541967125085 392.0216771791424 739.3902983141552 388.2981100316462Q743.80341493341 384.57454288414993 746.4466879084845 379.7017266170562L746.4466879084845 379.7017266170562L746.4466879084845 395.42345457315133Q740.9992470815919 401.88223462528975 732.8395783324489 406.2953512445445Q724.702894565698 410.7314528461913 715.6697964856609 410.7314528461913L715.6697964856609 410.7314528461913Q707.969827384357 410.7314528461913 703.188951046831 407.12281061065477Q698.3850897269131 403.53715335751036 696.1555464348937 397.40016305885916Q693.9030181604825 391.2861577426 693.9030181604825 383.83902344760753L693.9030181604825 383.83902344760753ZM831.4451527939225 327.4108916753657L831.4451527939225 327.4108916753657Q831.4451527939225 330.7207291398067 830.5257534982445 335.0648908118856Q829.6063542025664 339.40905248396456 827.5377057872907 342.6269500188378L827.5377057872907 342.6269500188378Q825.974726984638 342.3051602653505 824.3198082524175 342.1672503709987Q822.664889520197 342.05232545903897 821.0099707879764 341.96038552947124L821.0099707879764 341.96038552947124Q816.1371545208826 341.96038552947124 812.5285122853461 343.983063979963Q808.9198700498097 346.02872741284665 806.4374919514789 349.2466249477199Q803.9551138531481 352.46452248259317 802.2772101385356 356.18808963008945Q800.5763214415311 359.9116567775856 799.4960272691094 363.4053741011623L799.4960272691094 363.4053741011623L797.1055891003464 360.3253864606408Q797.26648397709 354.6251108274367 798.6685679029991 348.6720003879212Q800.0706518289082 342.71888994840566 803.1046695046459 337.6621938221762Q806.1157021979916 332.6054976959468 810.9655334826934 329.5484950378172Q815.7923797850033 326.4914923796876 822.9177243265084 326.4914923796876L822.9177243265084 326.4914923796876Q824.9863727417841 326.4914923796876 827.0550211570597 326.6983572212152Q829.1236695723354 326.90522206274267 831.4451527939225 327.4108916753657ZM780.5564017781411 335.08787579427764L780.5564017781411 335.08787579427764Q781.1310263379398 332.8583325022583 782.9008699821202 330.3069994567516Q784.6936986086924 327.732681428853 786.5784671648324 326.39955245011976L786.5784671648324 326.39955245011976Q794.5312710724478 328.30730598865176 798.3697631319038 334.7201160760064Q802.2312401737518 341.1329261633609 802.8058647335505 350.74064880319685L802.8058647335505 350.74064880319685L802.8058647335505 409.23742899071436Q799.4040873395415 409.90399348008094 794.7841058787593 409.90399348008094L794.7841058787593 409.90399348008094Q790.0721844884092 409.90399348008094 786.6704070944003 409.23742899071436L786.6704070944003 409.23742899071436L786.6704070944003 352.14273272910583Q786.6704070944003 345.6149977297916 784.7166835910843 341.33979100488847Q782.7859450701604 337.0875692623774 780.5564017781411 335.08787579427764ZM910.9502068876841 368.43908524499983L910.9502068876841 368.43908524499983Q910.9502068876841 381.01187061339743 906.9508199514845 390.71153318280113Q902.9284480328929 400.38821076981293 895.0216140900615 405.88162156148945Q887.11478014723 411.3980173355579 875.3694541449427 411.3980173355579L875.3694541449427 411.3980173355579Q863.6241281426552 411.3980173355579 855.7632641646077 405.83565159670553Q847.90240018656 400.2962708402451 843.9259982327524 390.5736232884495Q839.9495962789447 380.85097573665377 839.9495962789447 368.43908524499983L839.9495962789447 368.43908524499983Q839.9495962789447 355.8662998766021 843.9719681975364 346.1896222895903Q847.9943401161279 336.51294470257864 855.8781890765674 330.9965489285101Q863.7850230193989 325.5031381368337 875.3694541449427 325.5031381368337L875.3694541449427 325.5031381368337Q887.2067200767979 325.5031381368337 895.1135540196293 331.042518893294Q903.0203879624607 336.58189964975446 906.9738049338764 346.25857723676614Q910.9502068876841 355.95823980616984 910.9502068876841 368.43908524499983ZM856.6826634602858 368.43908524499983L856.6826634602858 368.43908524499983Q856.6826634602858 376.2309942758714 858.3375821925063 383.2184289230249Q859.9925009247268 390.2058635701782 864.0838277904943 394.55002524225716Q868.1751546562616 398.894186914336 875.5303490216863 398.894186914336L875.5303490216863 398.894186914336Q882.816588439935 398.894186914336 886.8849303233105 394.55002524225716Q890.930287224294 390.2058635701782 892.5852059565145 383.2184289230249Q894.2401246887351 376.2309942758714 894.2401246887351 368.43908524499983L894.2401246887351 368.43908524499983Q894.2401246887351 360.67016119652004 892.5852059565145 353.6827265493667Q890.930287224294 346.6723069198213 886.8849303233105 342.25919030056656Q882.816588439935 337.8230886989199 875.5303490216863 337.8230886989199L875.5303490216863 337.8230886989199Q868.1751546562616 337.8230886989199 864.0838277904943 342.25919030056656Q859.9925009247268 346.6723069198213 858.3375821925063 353.6827265493667Q856.6826634602858 360.67016119652004 856.6826634602858 368.43908524499983ZM951.0130311968562 341.2248660929287L951.0130311968562 413.21383094452204Q951.0130311968562 422.89050853153384 948.9443827815807 429.2113786893206Q946.8757343663049 435.5552338294993 941.8650082048595 439.3937258889553Q936.854282043414 443.25520293080314 927.9131238929447 445.5537011699984L927.9131238929447 445.5537011699984Q926.2582051607242 443.99072236734565 924.9480611643828 441.3014794274873Q923.6149321856496 438.6122364876289 923.1092625730266 435.5552338294993L923.1092625730266 435.5552338294993Q927.752229016201 433.14181067834437 930.3495320264915 430.75137250958136Q932.969820019174 428.36093434081835 934.0041442268118 424.706322140498Q935.0384684344498 421.07469492256956 935.0384684344498 415.12158448305405L935.0384684344498 415.12158448305405L935.0384684344498 348.0054358985546Q935.0384684344498 343.5463493145159 933.498474614189 341.50068588163214Q931.9814657763202 339.4780074311404 927.9131238929447 339.4780074311404L927.9131238929447 339.4780074311404L924.6032864285036 339.4780074311404Q923.936721939137 336.6738395793223 923.936721939137 333.7777317979364L923.936721939137 333.7777317979364Q923.936721939137 332.28370794245944 924.1206017982727 330.8356540517664Q924.2814966750162 329.3876001610735 924.6032864285036 327.82462135842076L924.6032864285036 327.82462135842076Q927.9131238929447 327.4108916753657 931.1769913926018 327.22701181623Q934.463843874651 327.06611693948634 936.4405523603588 327.06611693948634L936.4405523603588 327.06611693948634L938.4172608460667 327.06611693948634Q944.3014163384063 327.06611693948634 947.6572237676313 330.88162401655035Q951.0130311968562 334.67414611122246 951.0130311968562 341.2248660929287L951.0130311968562 341.2248660929287ZM929.5680426251652 305.6441133501872L929.5680426251652 305.6441133501872Q929.5680426251652 301.5757714668117 931.062066480642 298.5187688086821L931.062066480642 298.5187688086821Q932.5560903361189 297.6913094425718 935.0384684344498 297.11668488277303Q937.5208465327805 296.54206032297424 939.8423297543677 296.54206032297424L939.8423297543677 296.54206032297424Q941.9799331168192 296.54206032297424 944.6691760566775 297.11668488277303Q947.3584189965359 297.6913094425718 948.5996080457013 298.5187688086821L948.5996080457013 298.5187688086821Q949.266172535068 299.92085273459116 949.6799022181231 301.9665161674749Q950.0936319011782 303.98919461796663 950.0936319011782 305.6441133501872L950.0936319011782 305.6441133501872Q950.0936319011782 309.7814101807385 948.5996080457013 312.8384128388681L948.5996080457013 312.8384128388681Q947.4503589261037 313.66587220497837 944.7151460214615 314.2404967647772Q941.9799331168192 314.81512132457595 939.8423297543677 314.81512132457595L939.8423297543677 314.81512132457595Q937.5208465327805 314.81512132457595 934.9924984696659 314.2404967647772Q932.4641504065512 313.66587220497837 931.062066480642 312.8384128388681L931.062066480642 312.8384128388681Q929.5680426251652 309.7814101807385 929.5680426251652 305.6441133501872ZM995.4430021604992 341.2248660929287L995.4430021604992 409.23742899071436Q992.0412247664904 409.90399348008094 987.4212433057081 409.90399348008094L987.4212433057081 409.90399348008094Q982.7782768625339 409.90399348008094 979.3075445213491 409.23742899071436L979.3075445213491 409.23742899071436L979.3075445213491 348.0054358985546Q979.3075445213491 343.5463493145159 977.7675507010883 341.50068588163214Q976.2505418632195 339.4780074311404 972.182199979844 339.4780074311404L972.182199979844 339.4780074311404L970.3663863708798 339.4780074311404Q969.6998218815131 336.6738395793223 969.6998218815131 333.7777317979364L969.6998218815131 333.7777317979364Q969.6998218815131 332.28370794245944 969.8607167582568 330.8356540517664Q970.0445966173925 329.3876001610735 970.3663863708798 327.82462135842076L970.3663863708798 327.82462135842076Q973.4233890290094 327.4108916753657 976.0666620040838 327.22701181623Q978.7329199615504 327.06611693948634 980.4567936409467 327.06611693948634L980.4567936409467 327.06611693948634L982.5254420562223 327.06611693948634Q988.5704924253057 327.06611693948634 991.9952548017066 330.88162401655035Q995.4430021604992 334.67414611122246 995.4430021604992 341.2248660929287L995.4430021604992 341.2248660929287ZM974.1818934479438 305.6441133501872L974.1818934479438 305.6441133501872Q974.1818934479438 301.5757714668117 975.6529323210286 298.5187688086821L975.6529323210286 298.5187688086821Q977.1469561765057 297.6913094425718 979.6293342748363 297.11668488277303Q982.1117123731672 296.54206032297424 984.4331955947544 296.54206032297424L984.4331955947544 296.54206032297424Q986.5937839395979 296.54206032297424 989.2830268794562 297.11668488277303Q991.9722698193145 297.6913094425718 993.21345886848 298.5187688086821L993.21345886848 298.5187688086821Q993.8570383754545 299.92085273459116 994.2707680585097 301.9665161674749Q994.6844977415649 303.98919461796663 994.6844977415649 305.6441133501872L994.6844977415649 305.6441133501872Q994.6844977415649 309.7814101807385 993.21345886848 312.8384128388681L993.21345886848 312.8384128388681Q992.0412247664904 313.66587220497837 989.3060118618482 314.2404967647772Q986.5937839395979 314.81512132457595 984.4331955947544 314.81512132457595L984.4331955947544 314.81512132457595Q982.1117123731672 314.81512132457595 979.5833643100525 314.2404967647772Q977.0780012293297 313.66587220497837 975.6529323210286 312.8384128388681L975.6529323210286 312.8384128388681Q974.1818934479438 309.7814101807385 974.1818934479438 305.6441133501872ZM1048.3084616619885 408.1571348182926L1085.7969679432622 296.19728558709494Q1087.7736764289702 295.8754958336076 1090.60082926318 295.71460095686393Q1093.4049971149984 295.55370608012026 1095.473645530274 295.55370608012026L1095.473645530274 295.55370608012026Q1097.473338998374 295.55370608012026 1100.277506850192 295.71460095686393Q1103.0816747020099 295.8754958336076 1104.8285333637982 296.2892255166628L1104.8285333637982 296.2892255166628L1142.0642048387604 408.24907474786045Q1140.2483912297962 409.3293689202822 1137.628103237114 409.85802351529713Q1135.030800226823 410.38667811031195 1132.2955873221808 410.38667811031195L1132.2955873221808 410.38667811031195Q1128.3191853683734 410.38667811031195 1126.1356120411378 408.5708645013478Q1123.9520387139023 406.7550508923836 1122.3660749288579 401.5374598894105L1122.3660749288579 401.5374598894105L1103.4264494378895 342.3741152125263Q1101.19690614587 335.17981572384537 1098.8294529594991 327.22701181623Q1096.461999773128 319.29719289100666 1094.8070810409072 312.93035276843597L1094.8070810409072 312.93035276843597L1093.9106667276214 312.93035276843597Q1092.6694776784557 318.30883864815263 1090.807694104708 324.99746852421066Q1088.9459105309597 331.7090833826607 1087.6127815522264 336.0072750899556L1087.6127815522264 336.0072750899556L1064.1221295476516 409.39832386745803Q1062.6281056921748 409.7430986033373 1060.7663221184266 409.90399348008094Q1058.9045385446784 410.0648883568246 1056.9278300589708 410.0648883568246L1056.9278300589708 410.0648883568246Q1054.767241714127 410.0648883568246 1052.6526233340678 409.7430986033373Q1050.538004954008 409.39832386745803 1048.8141312746116 408.915639237227L1048.8141312746116 408.915639237227L1048.3084616619885 408.1571348182926ZM1105.7479326594766 381.6094801555882L1083.06175503862 381.6094801555882Q1082.3262356020778 381.6094801555882 1079.8898274685307 381.56351019080427Q1077.4304343525919 381.51754022602034 1074.9940262190448 381.47157026123654Q1072.5576180854978 381.4256002964526 1071.7301587193879 381.4256002964526L1071.7301587193879 381.4256002964526L1064.1910844948275 381.4256002964526L1069.4086754978007 367.77252075563314L1076.0283504266827 367.77252075563314Q1076.855809792793 367.77252075563314 1079.0163981376363 367.74953577324123Q1081.1540015000878 367.7035658084573 1083.2686198801475 367.6575958436734Q1085.3832382602072 367.61162587888947 1086.1187576967495 367.61162587888947L1086.1187576967495 367.61162587888947L1103.0816747020099 367.61162587888947Q1103.8401791209444 367.61162587888947 1106.02375244818 367.6575958436734Q1108.2303107578073 367.7035658084573 1110.4138840850428 367.74953577324123Q1112.5974574122783 367.77252075563314 1113.4249167783883 367.77252075563314L1113.4249167783883 367.77252075563314L1120.2284715664064 367.77252075563314L1124.687558150445 381.4256002964526L1117.1484839258846 381.4256002964526Q1116.4129644893424 381.4256002964526 1113.8846164262272 381.47157026123654Q1111.3562683631126 381.51754022602034 1108.919860229566 381.56351019080427Q1106.483452096019 381.6094801555882 1105.7479326594766 381.6094801555882L1105.7479326594766 381.6094801555882ZM1233.1766750404577 332.1228130657158L1233.1766750404577 332.1228130657158Q1233.1766750404577 344.1899288214906 1228.3728137205399 352.3495975706334Q1223.568952400622 360.5092663197764 1215.0415239332078 364.6695481327196Q1206.5140954657936 368.8528149280549 1195.5272738824406 368.8528149280549L1195.5272738824406 368.8528149280549L1170.5196130399968 368.8528149280549L1170.5196130399968 355.77435994703427Q1173.346765874207 355.70540499985844 1178.2655521060847 355.6134650702906Q1183.1843383379623 355.5445101231148 1187.9422296930966 355.49854015833085Q1192.7001210482304 355.45257019354693 1195.1135441993852 355.45257019354693L1195.1135441993852 355.45257019354693Q1203.5490327372318 355.45257019354693 1207.9621493564869 351.72900304605076Q1212.3982509581333 348.0054358985546 1214.0991396551376 342.5809800540539Q1215.8000283521424 337.1565242095532 1215.8000283521424 332.1228130657158L1215.8000283521424 332.1228130657158Q1215.8000283521424 326.9971619923105 1214.0991396551376 321.64166109498575Q1212.3982509581333 316.3091451800529 1207.9621493564869 312.67751796212445Q1203.5490327372318 309.0229057618041 1195.1135441993852 309.0229057618041L1195.1135441993852 309.0229057618041Q1191.458931999065 309.0229057618041 1186.632085696755 308.99992077941215Q1181.7822544120531 308.95395081462823 1177.5530176519342 308.86201088506044L1177.5530176519342 308.86201088506044L1177.5530176519342 409.23742899071436Q1175.6682490957942 409.5592187442017 1173.392735838991 409.7430986033373Q1171.1172225821874 409.90399348008094 1169.117529114088 409.90399348008094L1169.117529114088 409.90399348008094Q1167.3017155051234 409.90399348008094 1165.0262022483203 409.7430986033373Q1162.750688991517 409.5592187442017 1160.8429354529853 409.23742899071436L1160.8429354529853 409.23742899071436L1160.8429354529853 297.11668488277303L1161.9232296254067 296.1283306399191Q1171.1861775293632 295.96743576317544 1179.2079363841544 295.76057092164785Q1187.2526802213379 295.55370608012026 1195.5272738824406 295.55370608012026L1195.5272738824406 295.55370608012026Q1206.4451405186178 295.55370608012026 1214.972568986032 299.5990629811038Q1223.477012471054 303.6444198820874 1228.3268437557558 311.75811866644636Q1233.1766750404577 319.8718174508054 1233.1766750404577 332.1228130657158ZM1255.012408312812 409.23742899071436L1255.012408312812 296.19728558709494Q1256.7592669746005 295.8754958336076 1259.0577652137958 295.71460095686393Q1261.3792484353826 295.55370608012026 1263.1950620443472 295.55370608012026L1263.1950620443472 295.55370608012026Q1265.2637104596229 295.55370608012026 1267.5162387340342 295.71460095686393Q1269.7457820260533 295.8754958336076 1271.6535355645851 296.19728558709494L1271.6535355645851 296.19728558709494L1271.6535355645851 409.23742899071436Q1269.7457820260533 409.5592187442017 1267.5162387340342 409.7430986033373Q1265.2637104596229 409.90399348008094 1263.1950620443472 409.90399348008094L1263.1950620443472 409.90399348008094Q1261.3792484353826 409.90399348008094 1259.0577652137958 409.7430986033373Q1256.7592669746005 409.5592187442017 1255.012408312812 409.23742899071436L1255.012408312812 409.23742899071436Z " fill="#ededed" transform="matrix(0.6880804839141028,0,0,0.6880804839141027,0,45.02924296347366)"/></g></svg>