<svg xmlns="http://www.w3.org/2000/svg" version="1.1" xmlns:xlink="http://www.w3.org/1999/xlink" xmlns:svgjs="http://svgjs.dev/svgjs" width="100%" height="100%" viewBox="0 0 1000 600"><rect width="1000" height="600" x="0" y="0" fill="#0f0f1c"/><g><rect width="333.3333333333333" height="333.3333333333333" rx="13.333333333333334" ry="13.333333333333334" y="219.24772364017116" fill="#3b82f6" transform="matrix(0.6344356687498199,0,0,0.63443566874982,0,55.16214746887405)" x="197.0254974365234"/><path d="M311.40049183873265 460.91439676460186L300.4778731218 460.91439676460186Q298.75168269787054 460.91439676460186 297.47192083185394 459.6346348985852Q296.1921589658373 458.3548730325686 296.1921589658373 456.62868260863917L296.1921589658373 456.62868260863917Q296.1921589658373 455.5572540696485 296.40049229286325 454.2774922036319L296.40049229286325 454.2774922036319L349.5552525883449 315.6167821159226Q350.41834780030956 313.4739250379412 351.9064429933522 312.19416317192463Q353.39453818639475 310.914401305908 356.4004904763408 310.914401305908L356.4004904763408 310.914401305908L370.98382336815826 310.914401305908Q373.9897756581043 310.914401305908 375.4778708511469 312.19416317192463Q376.9659660441895 313.4739250379412 377.8290612561542 315.6167821159226L377.8290612561542 315.6167821159226L430.77548822460983 454.2774922036319Q431.19215487866177 455.5572540696485 431.19215487866177 456.62868260863917L431.19215487866177 456.62868260863917Q431.19215487866177 458.3548730325686 429.91239301264517 459.6346348985852Q428.6326311466285 460.91439676460186 426.9064407226991 460.91439676460186L426.9064407226991 460.91439676460186L415.9838220057664 460.91439676460186Q413.3945363698723 460.91439676460186 412.2338221192991 459.6346348985852Q411.043345964865 458.3548730325686 410.6266793108131 457.2834444935779L410.6266793108131 457.2834444935779L398.8409653819157 426.83701684392634L328.54334846258337 426.83701684392634L316.757634533686 457.2834444935779Q316.54930120666 458.3548730325686 315.2695393406434 459.6346348985852Q313.98977747462675 460.91439676460186 311.40049183873265 460.91439676460186L311.40049183873265 460.91439676460186ZM363.6921569222495 332.3429720857214L334.7635863695014 408.414398354059L392.62072747499764 408.414398354059L363.6921569222495 332.3429720857214Z " fill="#ffffff" transform="matrix(0.6344356687498199,0,0,0.63443566874982,0,55.16214746887405)"/><path d="M625.4159268659001 429.52865622444443L616.9959213766575 429.52865622444443Q615.6652393102376 429.52865622444443 614.678699157547 428.54211607175387Q613.6921590048565 427.5555759190633 613.6921590048565 426.22489385264345L613.6921590048565 426.22489385264345Q613.6921590048565 425.3989532596932 613.8527585645968 424.41241310700264L613.8527585645968 424.41241310700264L654.8285890926284 317.5219347026919Q655.4939301258382 315.8700535167914 656.6410698382691 314.88351336410085Q657.7882095507001 313.8969732114103 660.1054317698105 313.8969732114103L660.1054317698105 313.8969732114103L671.3474009516332 313.8969732114103Q673.6646231707435 313.8969732114103 674.8117628831745 314.88351336410085Q675.9589025956054 315.8700535167914 676.6242436288153 317.5219347026919L676.6242436288153 317.5219347026919L717.4394745971066 424.41241310700264Q717.7606737165872 425.3989532596932 717.7606737165872 426.22489385264345L717.7606737165872 426.22489385264345Q717.7606737165872 427.5555759190633 716.7741335638966 428.54211607175387Q715.787593411206 429.52865622444443 714.4569113447862 429.52865622444443L714.4569113447862 429.52865622444443L706.0369058555435 429.52865622444443Q704.0408827559137 429.52865622444443 703.1461137802177 428.54211607175387Q702.2284020102728 427.5555759190633 701.9072028907923 426.72963532611305L701.9072028907923 426.72963532611305L692.8218563683396 403.2591568097769L638.6309763531041 403.2591568097769L629.5456298306514 426.72963532611305Q629.3850302709111 427.5555759190633 628.3984901182206 428.54211607175387Q627.41194996553 429.52865622444443 625.4159268659001 429.52865622444443L625.4159268659001 429.52865622444443ZM665.7264163607218 330.41578507041515L643.4260203510652 389.0575671698825L688.0268123703785 389.0575671698825L665.7264163607218 330.41578507041515ZM745.3379124034259 429.52865622444443L737.0785064739234 429.52865622444443Q735.4266252880229 429.52865622444443 734.3712567525865 428.4503448947594Q733.2929454229015 427.37203356507433 733.2929454229015 425.7201523791739L733.2929454229015 425.7201523791739L733.2929454229015 347.43933840288963Q733.2929454229015 345.78745721698914 734.3712567525865 344.7091458873041Q735.4266252880229 343.63083455761904 737.0785064739234 343.63083455761904L737.0785064739234 343.63083455761904L744.856113724205 343.63083455761904Q746.5079949101054 343.63083455761904 747.5863062397905 344.7091458873041Q748.6416747752269 345.78745721698914 748.6416747752269 347.43933840288963L748.6416747752269 347.43933840288963L748.6416747752269 354.6892613854529Q752.9549200939671 349.0912195887901 759.4706736605744 345.53508648025434Q765.986427227182 341.9789533717186 776.2418562563142 341.9789533717186L776.2418562563142 341.9789533717186Q786.9790839646673 341.9789533717186 794.4813776839654 346.6822261926852Q802.006614197512 351.3854990136519 805.8839464255285 359.7366761201488Q809.7612786535449 368.08785322664573 809.7612786535449 379.1462800544796L809.7612786535449 379.1462800544796L809.7612786535449 425.7201523791739Q809.7612786535449 427.37203356507433 808.7059101181085 428.4503448947594Q807.6275987884235 429.52865622444443 805.975717602523 429.52865622444443L805.975717602523 429.52865622444443L797.7163116730205 429.52865622444443Q796.06443048712 429.52865622444443 794.986119157435 428.4503448947594Q793.9078078277499 427.37203356507433 793.9078078277499 425.7201523791739L793.9078078277499 425.7201523791739L793.9078078277499 379.9722206474298Q793.9078078277499 368.4090523461264 788.2868232368386 361.8932987795189Q782.6887814401758 355.3546024186628 771.7680113778338 355.3546024186628L771.7680113778338 355.3546024186628Q761.5355251429501 355.3546024186628 755.3409706958233 361.8932987795189Q749.1464162486965 368.4090523461264 749.1464162486965 379.9722206474298L749.1464162486965 379.9722206474298L749.1464162486965 425.7201523791739Q749.1464162486965 427.37203356507433 748.0681049190114 428.4503448947594Q746.9897935893264 429.52865622444443 745.3379124034259 429.52865622444443L745.3379124034259 429.52865622444443ZM845.1161245906651 429.52865622444443L837.200860574892 429.52865622444443Q835.5489793889915 429.52865622444443 834.4706680593064 428.4503448947594Q833.3923567296214 427.37203356507433 833.3923567296214 425.7201523791739L833.3923567296214 425.7201523791739L833.3923567296214 347.43933840288963Q833.3923567296214 345.78745721698914 834.4706680593064 344.7091458873041Q835.5489793889915 343.63083455761904 837.200860574892 343.63083455761904L837.200860574892 343.63083455761904L845.1161245906651 343.63083455761904Q846.7680057765656 343.63083455761904 847.8463171062506 344.7091458873041Q848.9246284359356 345.78745721698914 848.9246284359356 347.43933840288963L848.9246284359356 347.43933840288963L848.9246284359356 425.7201523791739Q848.9246284359356 427.37203356507433 847.8463171062506 428.4503448947594Q846.7680057765656 429.52865622444443 845.1161245906651 429.52865622444443L845.1161245906651 429.52865622444443ZM846.2862070973446 327.6167641720838L835.8701785084721 327.6167641720838Q834.2182973225715 327.6167641720838 833.1399859928865 326.5384528423987Q832.0616746632015 325.4601415127137 832.0616746632015 323.80826032681324L832.0616746632015 323.80826032681324L832.0616746632015 314.88351336410085Q832.0616746632015 313.23163217820036 833.1399859928865 312.0844924657695Q834.2182973225715 310.91440995908994 835.8701785084721 310.91440995908994L835.8701785084721 310.91440995908994L846.2862070973446 310.91440995908994Q847.9380882832452 310.91440995908994 849.085227995676 312.0844924657695Q850.232367708107 313.23163217820036 850.232367708107 314.88351336410085L850.232367708107 314.88351336410085L850.232367708107 323.80826032681324Q850.232367708107 325.4601415127137 849.085227995676 326.5384528423987Q847.9380882832452 327.6167641720838 846.2862070973446 327.6167641720838L846.2862070973446 327.6167641720838ZM885.105414966006 429.52865622444443L877.1672081559843 429.52865622444443Q875.5153269700838 429.52865622444443 874.4370156403987 428.4503448947594Q873.3587043107136 427.37203356507433 873.3587043107136 425.7201523791739L873.3587043107136 425.7201523791739L873.3587043107136 347.43933840288963Q873.3587043107136 345.78745721698914 874.4370156403987 344.7091458873041Q875.5153269700838 343.63083455761904 877.1672081559843 343.63083455761904L877.1672081559843 343.63083455761904L884.6006734925364 343.63083455761904Q886.252554678437 343.63083455761904 887.330866008122 344.7091458873041Q888.409177337807 345.78745721698914 888.409177337807 347.43933840288963L888.409177337807 347.43933840288963L888.409177337807 353.22092255354136Q892.1947383888289 348.0817366418509 897.9763225394806 345.0303450067847Q903.7579066901324 341.9789533717186 911.8567130598946 341.9789533717186L911.8567130598946 341.9789533717186Q930.5321475782695 341.8183538119783 938.2868120343023 357.1670831643036L938.2868120343023 357.1670831643036Q942.0953158795729 350.238359301221 949.3452388621362 346.1086563364698Q956.618104638948 341.9789533717186 965.864050721141 341.9789533717186L965.864050721141 341.9789533717186Q974.4675985643728 341.9789533717186 981.4880936044498 345.94805677672946Q988.5085886445269 349.91716018174037 992.5465204322836 357.924195374508Q996.6073950142891 365.93123056727563 996.6073950142891 377.99914034204863L996.6073950142891 377.99914034204863L996.6073950142891 425.7201523791739Q996.6073950142891 427.37203356507433 995.529083684604 428.4503448947594Q994.4507723549189 429.52865622444443 992.7988911690185 429.52865622444443L992.7988911690185 429.52865622444443L985.0442267129856 429.52865622444443Q983.3923455270851 429.52865622444443 982.3140341974001 428.4503448947594Q981.2357228677149 427.37203356507433 981.2357228677149 425.7201523791739L981.2357228677149 425.7201523791739L981.2357228677149 379.4674791739602Q981.2357228677149 370.2215330917672 978.597301529124 364.94469041458507Q975.9588801905329 359.64490494315436 971.4850353120523 357.5112250780329Q967.0341332278206 355.3546024186628 961.7343477563898 355.3546024186628L961.7343477563898 355.3546024186628Q957.4440452318984 355.3546024186628 952.9931431476664 357.5112250780329Q948.5192982691859 359.64490494315436 945.6285061938601 364.94469041458507Q942.7377141185342 370.2215330917672 942.7377141185342 379.4674791739602L942.7377141185342 379.4674791739602L942.7377141185342 425.7201523791739Q942.7377141185342 427.37203356507433 941.6823455830978 428.4503448947594Q940.6040342534127 429.52865622444443 938.9521530675122 429.52865622444443L938.9521530675122 429.52865622444443L931.1745458172308 429.52865622444443Q929.5226646313303 429.52865622444443 928.4672960958939 428.4503448947594Q927.3889847662088 427.37203356507433 927.3889847662088 425.7201523791739L927.3889847662088 425.7201523791739L927.3889847662088 379.4674791739602Q927.3889847662088 370.2215330917672 924.5670210736289 364.94469041458507Q921.7680001752974 359.64490494315436 917.3170980910656 357.5112250780329Q912.8432532125851 355.3546024186628 907.8876096548836 355.3546024186628L907.8876096548836 355.3546024186628Q903.5973071303921 355.3546024186628 899.1464050461602 357.5112250780329Q894.6725601676796 359.64490494315436 891.7817680923539 364.94469041458507Q888.890976017028 370.2215330917672 888.890976017028 379.30687961421984L888.890976017028 379.30687961421984L888.890976017028 425.7201523791739Q888.890976017028 427.37203356507433 887.8126646873429 428.4503448947594Q886.7572961519065 429.52865622444443 885.105414966006 429.52865622444443L885.105414966006 429.52865622444443ZM1054.5838360805465 431.1805374103449L1054.5838360805465 431.1805374103449Q1037.399683188332 431.1805374103449 1027.3277965131883 420.6956804387265Q1017.2559098380451 410.2108234671082 1016.246426891106 392.04013042220276L1016.246426891106 392.04013042220276Q1016.0858273313656 389.8835077628327 1016.0858273313656 386.48797421403725Q1016.0858273313656 383.11538345949043 1016.246426891106 380.95876080012033L1016.246426891106 380.95876080012033Q1016.9117679243158 369.2349929390766 1021.706811922277 360.4020171533587Q1026.501855920238 351.56904136764086 1034.8300902324863 346.7739973696797Q1043.1812673389832 341.9789533717186 1054.4232365208063 341.9789533717186L1054.4232365208063 341.9789533717186Q1066.9729449748002 341.9789533717186 1075.4847216410376 347.25579604890066Q1083.973555513026 352.55558152033143 1088.4474003915066 362.306269075994Q1092.8983024757385 372.034013837408 1092.8983024757385 385.08846376487156L1092.8983024757385 385.08846376487156L1092.8983024757385 387.9104274574516Q1092.8983024757385 389.7229082030924 1091.8199911460533 390.70944835578297Q1090.7646226106167 391.69598850847353 1089.1127414247162 391.69598850847353L1089.1127414247162 391.69598850847353L1031.9392981571605 391.69598850847353Q1031.9392981571605 391.85658806821385 1031.9392981571605 392.36132954168346Q1031.9392981571605 392.866071015153 1031.9392981571605 393.18727013463365L1031.9392981571605 393.18727013463365Q1032.2834400708898 399.955394437976 1034.9218614094807 405.82874976562215Q1037.560282748072 411.6791622990197 1042.607697482768 415.3270665845499Q1047.6321694232151 418.95202807583155 1054.4232365208063 418.95202807583155L1054.4232365208063 418.95202807583155Q1060.3654202311982 418.95202807583155 1064.3345236362093 417.1395473301908Q1068.2806842469713 415.3270665845499 1070.758506025822 413.10161554243405Q1073.2363278046728 410.85322170606946 1074.062268397623 409.54548243389826L1074.062268397623 409.54548243389826Q1075.5535500237834 407.5494593342685 1076.3794906167336 407.13648903779335Q1077.2054312096839 406.72351874131823 1079.0179119553245 406.72351874131823L1079.0179119553245 406.72351874131823L1087.1167183250868 406.72351874131823Q1088.6079999512467 406.72351874131823 1089.686311280932 407.64123051126296Q1090.7646226106167 408.5589422812077 1090.581080256628 410.2108234671082L1090.581080256628 410.2108234671082Q1090.4204806968878 412.68864524595887 1087.942658918037 416.22183556024606Q1085.4648371391863 419.7779686687818 1080.92216387796 423.24233060032316Q1076.3794906167336 426.72963532611305 1069.7031374903854 428.955086368229Q1063.003841569789 431.1805374103449 1054.5838360805465 431.1805374103449ZM1031.9392981571605 379.81162108768945L1031.9392981571605 380.29341976691046L1077.2054312096839 380.29341976691046L1077.2054312096839 379.81162108768945Q1077.2054312096839 372.3781557511373 1074.4752386940982 366.59657160048556Q1071.767988972761 360.81498744983384 1066.6288030610708 357.4194539010384Q1061.5125599436292 354.04686314649155 1054.4232365208063 354.04686314649155L1054.4232365208063 354.04686314649155Q1047.3109703037344 354.04686314649155 1042.2635555690385 357.4194539010384Q1037.2390836285913 360.81498744983384 1034.6006622900004 366.59657160048556Q1031.9392981571605 372.3781557511373 1031.9392981571605 379.81162108768945L1031.9392981571605 379.81162108768945ZM1156.0139294536862 429.52865622444443L1147.5709811701945 429.52865622444443Q1146.2632418980234 429.52865622444443 1145.276701745333 428.54211607175387Q1144.267218798394 427.5555759190633 1144.267218798394 426.22489385264345L1144.267218798394 426.22489385264345Q1144.267218798394 425.3989532596932 1144.4507611523827 424.41241310700264L1144.4507611523827 424.41241310700264L1185.4036488861657 317.5219347026919Q1186.0689899193753 315.8700535167914 1187.2161296318063 314.88351336410085Q1188.386212138486 313.8969732114103 1190.7034343575965 313.8969732114103L1190.7034343575965 313.8969732114103L1201.9224607451706 313.8969732114103Q1204.2396829642807 313.8969732114103 1205.3868226767117 314.88351336410085Q1206.5569051833913 315.8700535167914 1207.2222462166014 317.5219347026919L1207.2222462166014 317.5219347026919L1248.0145343906438 424.41241310700264Q1248.3357335101246 425.3989532596932 1248.3357335101246 426.22489385264345L1248.3357335101246 426.22489385264345Q1248.3357335101246 427.5555759190633 1247.3491933574337 428.54211607175387Q1246.3626532047433 429.52865622444443 1245.0319711383236 429.52865622444443L1245.0319711383236 429.52865622444443L1236.611965649081 429.52865622444443Q1234.6388853436997 429.52865622444443 1233.721173573755 428.54211607175387Q1232.826404598059 427.5555759190633 1232.4822626843297 426.72963532611305L1232.4822626843297 426.72963532611305L1223.396916161877 403.2591568097769L1169.22897894089 403.2591568097769L1160.1436324184374 426.72963532611305Q1159.9600900644482 427.5555759190633 1158.9735499117578 428.54211607175387Q1157.9870097590674 429.52865622444443 1156.0139294536862 429.52865622444443L1156.0139294536862 429.52865622444443ZM1196.301476154259 330.41578507041515L1174.0010801446024 389.0575671698825L1218.6018721639157 389.0575671698825L1196.301476154259 330.41578507041515ZM1275.9359149912116 460.91439875655374L1267.8371086214497 460.91439875655374Q1266.1852274355492 460.91439875655374 1265.106916105864 459.8360874268687Q1264.0286047761792 458.75777609718364 1264.0286047761792 457.10589491128314L1264.0286047761792 457.10589491128314L1264.0286047761792 347.43933840288963Q1264.0286047761792 345.78745721698914 1265.106916105864 344.7091458873041Q1266.1852274355492 343.63083455761904 1267.8371086214497 343.63083455761904L1267.8371086214497 343.63083455761904L1275.431173517742 343.63083455761904Q1277.0830547036426 343.63083455761904 1278.1613660333278 344.7091458873041Q1279.2396773630126 345.78745721698914 1279.2396773630126 347.43933840288963L1279.2396773630126 347.43933840288963L1279.2396773630126 354.6892613854529Q1283.2087807680236 349.25181914853044 1289.8163055116256 345.6039148630002Q1296.4238302552276 341.9789533717186 1306.3351173706305 341.9789533717186L1306.3351173706305 341.9789533717186Q1315.5810634528234 341.9789533717186 1322.096817019431 345.1221161837792Q1328.6355133802872 348.2652789958399 1332.8340447277842 353.7027212327623Q1337.0555188695298 359.16310626393334 1339.1891987346517 366.09183012701595Q1341.3458213940216 373.0434967843472 1341.667020513502 380.95876080012033L1341.667020513502 380.95876080012033Q1341.8505628674911 383.59718213871145 1341.8505628674911 386.57974539103174Q1341.8505628674911 389.5623086433521 1341.667020513502 392.20072998194314L1341.667020513502 392.20072998194314Q1341.3458213940216 399.955394437976 1339.1891987346517 406.97588947805303Q1337.0555188695298 413.9963845181301 1332.8340447277842 419.3649983723067Q1328.6355133802872 424.7336122264833 1322.096817019431 427.9685462155384Q1315.5810634528234 431.1805374103449 1306.3351173706305 431.1805374103449L1306.3351173706305 431.1805374103449Q1296.7450293747083 431.1805374103449 1290.2292758081007 427.62440430180914Q1283.6905794472445 424.06827119327335 1279.5608764824933 418.7914285160913L1279.5608764824933 418.7914285160913L1279.5608764824933 457.10589491128314Q1279.5608764824933 458.75777609718364 1278.574336329803 459.8360874268687Q1277.5877961771125 460.91439875655374 1275.9359149912116 460.91439875655374L1275.9359149912116 460.91439875655374ZM1302.8478126448408 417.80488836340066L1302.8478126448408 417.80488836340066Q1311.4513604880722 417.80488836340066 1316.3152328687793 414.08815569512456Q1321.202048043735 410.3714230268485 1323.3357279088564 404.337468139462Q1325.4923505682264 398.3035132520755 1325.813549687707 391.3747893889929L1325.813549687707 391.3747893889929Q1325.9741492474473 386.57974539103174 1325.813549687707 381.7847013930706L1325.813549687707 381.7847013930706Q1325.4923505682264 374.85597752998797 1323.3357279088564 368.8220226426015Q1321.202048043735 362.78806775521497 1316.3152328687793 359.0713350869389Q1311.4513604880722 355.3546024186628 1302.8478126448408 355.3546024186628L1302.8478126448408 355.3546024186628Q1294.771949069327 355.3546024186628 1289.7245343346312 359.16310626393334Q1284.677119599935 362.9486673149553 1282.291068998079 368.8220226426015Q1279.9050183962227 374.6953779702477 1279.5608764824933 380.79816124038L1279.5608764824933 380.79816124038Q1279.4002769227532 383.43658257897107 1279.4002769227532 387.08448686450134Q1279.4002769227532 390.70944835578297 1279.5608764824933 393.50846925411435L1279.5608764824933 393.50846925411435Q1279.721476042234 399.29005340476607 1282.291068998079 404.9110379956774Q1284.8606619539241 410.5320225865888 1289.9769050713658 414.15698407787045Q1295.0931481888078 417.80488836340066 1302.8478126448408 417.80488836340066ZM1374.0622459925507 429.52865622444443L1366.1240391825286 429.52865622444443Q1364.472157996628 429.52865622444443 1363.3938466669433 428.4503448947594Q1362.315535337258 427.37203356507433 1362.315535337258 425.7201523791739L1362.315535337258 425.7201523791739L1362.315535337258 347.43933840288963Q1362.315535337258 345.78745721698914 1363.3938466669433 344.7091458873041Q1364.472157996628 343.63083455761904 1366.1240391825286 343.63083455761904L1366.1240391825286 343.63083455761904L1374.0622459925507 343.63083455761904Q1375.7141271784512 343.63083455761904 1376.7694957138874 344.7091458873041Q1377.8478070435726 345.78745721698914 1377.8478070435726 347.43933840288963L1377.8478070435726 347.43933840288963L1377.8478070435726 425.7201523791739Q1377.8478070435726 427.37203356507433 1376.7694957138874 428.4503448947594Q1375.7141271784512 429.52865622444443 1374.0622459925507 429.52865622444443L1374.0622459925507 429.52865622444443ZM1375.2093857049813 327.6167641720838L1364.7933571161088 327.6167641720838Q1363.1414759302083 327.6167641720838 1362.0861073947717 326.5384528423987Q1361.007796065087 325.4601415127137 1361.007796065087 323.80826032681324L1361.007796065087 323.80826032681324L1361.007796065087 314.88351336410085Q1361.007796065087 313.23163217820036 1362.0861073947717 312.0844924657695Q1363.1414759302083 310.91440995908994 1364.7933571161088 310.91440995908994L1364.7933571161088 310.91440995908994L1375.2093857049813 310.91440995908994Q1376.8612668908818 310.91440995908994 1378.0084066033128 312.0844924657695Q1379.1784891099924 313.23163217820036 1379.1784891099924 314.88351336410085L1379.1784891099924 314.88351336410085L1379.1784891099924 323.80826032681324Q1379.1784891099924 325.4601415127137 1378.0084066033128 326.5384528423987Q1376.8612668908818 327.6167641720838 1375.2093857049813 327.6167641720838L1375.2093857049813 327.6167641720838Z " fill="#f5f5f5" transform="matrix(0.6344356687498199,0,0,0.63443566874982,0,55.16214746887405)"/></g></svg>